<?xml version="1.0" standalone="no"?>
<!DOCTYPE svg PUBLIC "-//W3C//DTD SVG 20010904//EN"
 "http://www.w3.org/TR/2001/REC-SVG-20010904/DTD/svg10.dtd">
<svg version="1.0" xmlns="http://www.w3.org/2000/svg"
 width="7917.000000pt" height="2266.000000pt" viewBox="0 0 7917.000000 2266.000000"
 preserveAspectRatio="xMidYMid meet">

<g transform="translate(0.000000,2266.000000) scale(0.100000,-0.100000)"
fill="#000000" stroke="none">
<path d="M6010 17888 c-256 -358 -1008 -1410 -1671 -2337 -664 -927 -1206
-1687 -1205 -1688 3 -3 1316 124 1320 128 2 2 -43 76 -100 163 l-105 160 153
152 c84 83 710 701 1390 1373 1174 1159 1239 1221 1272 1221 20 0 280 -16 578
-35 299 -19 577 -36 618 -39 1756 -111 2667 -171 2673 -177 5 -4 20 -91 34
-193 14 -103 29 -185 33 -184 15 6 1069 763 1070 768 0 3 -98 29 -217 58 -120
28 -679 162 -1243 297 -564 135 -1437 344 -1940 465 -503 120 -1198 287 -1543
369 -346 83 -634 151 -640 151 -7 0 -221 -294 -477 -652z"/>
<path d="M5972 15374 c-678 -669 -1232 -1221 -1232 -1226 0 -5 133 -212 296
-461 163 -249 322 -491 353 -539 31 -49 59 -88 62 -88 3 0 31 37 61 83 211
316 546 713 819 969 724 680 1508 1051 2459 1165 228 28 811 25 1059 -6 319
-38 621 -95 901 -169 l106 -27 -4 25 c-95 706 -172 1263 -174 1266 -2 2 -69 8
-148 14 -310 22 -3242 210 -3283 210 l-43 0 -1232 -1216z"/>
<path d="M8945 14703 c-526 -42 -900 -143 -1294 -349 -490 -256 -939 -690
-1210 -1171 -348 -617 -434 -1438 -225 -2130 130 -431 374 -828 733 -1197 464
-474 1028 -835 2311 -1476 739 -369 1083 -565 1370 -778 149 -111 413 -374
503 -502 125 -177 218 -389 263 -595 26 -121 24 -369 -5 -502 -64 -304 -223
-567 -480 -796 -241 -216 -552 -355 -921 -412 -145 -23 -457 -31 -617 -16
-670 63 -1322 390 -1873 941 -537 537 -907 1278 -1115 2233 l-17 77 -134 0
-134 0 0 -1885 0 -1885 133 0 133 0 33 68 c156 316 451 532 727 532 159 0 311
-43 693 -195 784 -312 1200 -405 1827 -405 482 0 874 58 1274 190 642 211
1199 612 1614 1160 294 390 461 787 537 1280 30 195 33 628 6 815 -69 460
-207 823 -454 1189 -238 352 -587 671 -1128 1033 -367 245 -731 450 -1360 765
-1325 665 -1629 844 -1963 1163 -243 231 -389 457 -443 684 -117 491 72 972
511 1302 559 420 1511 424 2265 8 528 -292 991 -757 1278 -1285 176 -324 313
-714 382 -1094 l17 -90 149 0 149 0 0 58 c1 117 -71 3091 -76 3180 l-6 92
-108 0 -108 0 -17 -77 c-28 -128 -84 -303 -122 -382 -63 -132 -164 -206 -301
-219 -171 -18 -335 32 -773 236 -544 253 -818 343 -1224 401 -244 35 -599 51
-800 34z"/>
<path d="M14590 14345 c0 -74 3 -135 6 -135 4 0 63 -11 131 -25 269 -55 434
-153 498 -299 50 -113 79 -290 95 -570 8 -134 10 -1321 8 -3991 -4 -3510 -5
-3809 -21 -3923 -36 -259 -70 -346 -170 -437 -106 -97 -315 -184 -485 -201
l-62 -7 0 -133 0 -134 1775 0 1775 0 0 133 0 133 -88 12 c-196 26 -377 99
-467 187 -62 60 -86 105 -119 219 -64 218 -76 440 -76 1331 l1 720 222 216
223 217 712 -1043 c694 -1017 808 -1189 878 -1327 41 -81 84 -206 84 -244 0
-53 -25 -108 -73 -160 -72 -79 -153 -112 -319 -129 l-58 -6 0 -130 0 -129
1775 0 1775 0 0 130 c0 96 -3 132 -12 134 -7 2 -48 9 -91 16 -221 33 -441 157
-582 327 -142 170 -400 529 -812 1128 -672 980 -1906 2791 -1907 2800 -1 6
213 220 474 476 1273 1247 1525 1446 1970 1554 84 20 138 28 328 51 l42 5 0
135 0 134 -1545 0 -1545 0 0 -134 c0 -152 -7 -139 90 -151 178 -22 388 -83
486 -141 70 -41 146 -119 178 -183 87 -171 39 -433 -122 -667 -125 -184 -268
-331 -1347 -1388 l-820 -804 -3 3284 -2 3284 -1400 0 -1400 0 0 -135z"/>
<path d="M27740 14345 c0 -111 3 -135 14 -135 8 0 66 -7 129 -15 289 -38 483
-140 561 -293 65 -128 102 -336 116 -652 13 -286 13 -7407 0 -7619 -13 -217
-35 -356 -72 -470 -28 -82 -39 -102 -90 -157 -33 -35 -85 -80 -115 -100 -106
-70 -270 -126 -413 -139 -36 -3 -80 -8 -97 -11 l-33 -5 0 -129 0 -130 1860 0
1860 0 0 130 c0 150 18 131 -144 149 -210 24 -383 89 -481 182 -91 86 -142
214 -182 459 -16 98 -18 398 -20 4588 l-3 4482 -1445 0 -1445 0 0 -135z"/>
<path d="M32310 14345 c0 -111 3 -135 14 -135 54 0 259 -34 332 -56 353 -102
448 -289 474 -928 13 -325 13 -7372 0 -7591 -17 -280 -48 -442 -106 -556 -34
-68 -149 -169 -247 -218 -94 -46 -234 -86 -334 -96 -37 -3 -83 -8 -100 -11
l-33 -5 0 -129 0 -130 1860 0 1860 0 0 130 c0 150 18 131 -144 149 -210 24
-383 89 -481 182 -93 88 -141 210 -182 457 -16 101 -18 370 -20 4590 l-3 4482
-1445 0 -1445 0 0 -135z"/>
<path d="M36950 14347 l0 -134 188 -7 c329 -12 581 -50 715 -110 188 -83 344
-240 398 -400 23 -66 45 -198 61 -361 19 -195 19 -7530 0 -7723 -26 -259 -61
-376 -144 -487 -104 -138 -278 -251 -450 -295 -153 -38 -464 -70 -685 -70
l-83 0 0 -135 0 -135 2535 0 2535 0 0 133 0 134 -181 7 c-431 16 -653 61 -826
167 -103 63 -174 128 -228 210 -56 84 -88 177 -109 320 -38 258 -41 382 -41
1989 l0 1565 430 6 c1173 18 1804 92 2353 276 769 257 1344 736 1657 1378 109
223 181 463 222 740 22 152 25 581 4 725 -61 438 -224 817 -497 1160 -86 108
-303 325 -414 413 -568 455 -1392 697 -2579 757 -128 6 -1070 10 -2532 10
l-2329 0 0 -133z m4370 -462 c320 -44 560 -122 775 -255 373 -229 609 -602
714 -1125 49 -243 64 -422 64 -745 0 -397 -32 -663 -113 -954 -100 -354 -273
-635 -518 -839 -274 -229 -607 -352 -1049 -388 -129 -10 -358 -7 -495 7 l-58
7 0 2160 0 2160 283 -6 c162 -4 331 -13 397 -22z"/>
<path d="M51040 14345 c0 -122 2 -135 18 -135 9 0 65 -7 123 -14 255 -34 406
-98 511 -215 55 -61 96 -159 126 -301 49 -227 47 -86 47 -4235 0 -3689 -1
-3907 -18 -4024 -36 -253 -80 -368 -173 -448 -135 -118 -321 -194 -509 -209
-127 -10 -115 5 -115 -144 l0 -130 1855 0 1855 0 0 130 c0 149 12 134 -115
145 -160 15 -344 70 -444 135 -137 87 -199 223 -248 540 -16 108 -18 382 -20
4578 l-3 4462 -1445 0 -1445 0 0 -135z"/>
<path d="M50061 13870 c-205 -506 -454 -1047 -603 -1310 -96 -169 -255 -410
-364 -550 -109 -141 -406 -441 -534 -540 -155 -120 -326 -228 -475 -300 -77
-37 -607 -265 -1177 -506 -570 -241 -1035 -440 -1033 -442 2 -2 71 4 153 13
116 13 215 16 438 13 l289 -3 87 -31 c191 -68 315 -202 386 -416 64 -195 62
-115 62 -2164 0 -1184 -4 -1910 -10 -1999 -23 -308 -73 -517 -147 -611 -67
-85 -233 -168 -443 -220 -109 -26 -332 -60 -467 -70 l-93 -7 0 -148 0 -149
1920 0 1920 0 0 149 0 148 -87 7 c-373 28 -705 120 -828 228 -88 78 -156 254
-197 511 l-23 142 0 2140 0 2140 47 175 c121 455 233 738 413 1050 463 802
730 1680 796 2615 16 226 12 240 -30 135z"/>
<path d="M27186 13850 c-394 -957 -625 -1403 -937 -1811 -278 -363 -645 -677
-1005 -858 -50 -25 -575 -251 -1166 -501 -592 -250 -1070 -456 -1062 -458 7
-2 74 4 148 12 188 22 627 22 734 0 276 -56 451 -269 507 -618 13 -78 15 -368
15 -1996 0 -1162 -4 -1950 -10 -2020 -22 -261 -68 -455 -129 -552 -99 -157
-415 -268 -881 -309 l-140 -13 0 -148 0 -148 1920 0 1920 0 0 148 0 147 -162
18 c-302 33 -533 90 -673 165 -151 82 -226 245 -282 612 -16 106 -17 278 -20
2210 l-4 2095 27 115 c77 336 188 674 306 930 19 41 78 151 132 243 450 781
714 1622 791 2517 9 102 15 214 13 250 l-3 65 -39 -95z"/>
<path d="M66171 13817 c-140 -260 -401 -663 -622 -957 -500 -666 -1041 -1197
-1801 -1768 l-248 -186 0 -128 0 -128 449 0 450 0 4 -2252 c4 -2292 5 -2379
43 -2673 37 -294 171 -544 433 -805 203 -202 364 -312 588 -400 321 -126 753
-156 1138 -79 550 111 993 452 1316 1014 62 109 169 331 169 350 -1 5 -49 45
-107 87 l-106 77 -53 -85 c-225 -357 -458 -562 -713 -625 -165 -41 -300 -4
-433 119 -116 107 -165 210 -195 408 -15 99 -17 326 -20 2487 l-4 2377 821 0
820 0 0 365 0 365 -820 0 -820 0 0 1260 0 1260 -122 0 -123 0 -44 -83z"/>
<path d="M22929 13813 c-21 -60 -24 -86 -24 -218 0 -110 5 -167 17 -212 67
-242 196 -432 375 -550 50 -34 54 -40 74 -107 58 -199 75 -250 116 -356 159
-405 398 -695 686 -835 141 -68 235 -89 397 -89 98 0 154 5 205 18 262 68 449
257 528 536 49 169 71 504 48 694 -20 159 -71 306 -132 384 -12 16 -16 33 -12
57 9 58 -15 121 -69 180 -101 110 -368 246 -540 275 -35 5 -304 21 -598 35
-294 14 -571 30 -616 35 -185 23 -295 69 -377 161 l-55 60 -23 -68z"/>
<path d="M45810 13855 c-5 -13 -16 -48 -24 -77 -61 -217 4 -515 160 -734 48
-68 163 -179 229 -220 42 -27 43 -29 81 -158 170 -592 429 -961 797 -1137 312
-149 689 -104 910 109 166 160 248 397 263 767 12 283 -29 502 -122 645 -23
37 -29 57 -30 107 -1 76 -31 131 -105 196 -103 90 -340 203 -484 231 -52 10
-270 25 -615 41 -294 14 -575 30 -625 36 -179 22 -334 93 -391 178 -15 23 -28
41 -31 41 -2 0 -8 -11 -13 -25z"/>
<path d="M3593 13513 c3 -14 455 -1083 732 -1735 l33 -78 -34 -21 c-107 -66
-145 -232 -79 -344 22 -39 85 -97 116 -107 5 -2 33 -182 63 -401 30 -219 56
-400 59 -403 3 -3 89 -2 192 2 l187 7 131 109 c73 60 136 115 140 121 6 8 -67
129 -212 350 -202 308 -220 340 -209 360 7 12 12 54 12 92 0 59 -4 79 -29 123
-48 88 -140 138 -243 131 l-52 -4 -34 105 c-35 106 -282 871 -441 1365 -48
149 -92 275 -98 281 -10 9 -209 64 -233 64 -3 0 -4 -8 -1 -17z"/>
<path d="M58824 11580 c-612 -38 -1133 -222 -1583 -557 -142 -106 -423 -385
-537 -533 -411 -531 -669 -1109 -788 -1760 -114 -625 -97 -1270 49 -1865 78
-316 166 -557 310 -840 346 -684 801 -1164 1360 -1435 452 -219 920 -310 1533
-297 536 11 927 100 1347 307 504 248 936 660 1255 1196 371 623 545 1365 527
2239 -9 434 -59 782 -166 1154 -274 954 -799 1627 -1587 2033 -535 276 -1110
395 -1720 358z m450 -534 c152 -30 270 -93 385 -206 158 -156 284 -395 356
-677 94 -365 132 -1054 121 -2148 -12 -1230 -64 -2025 -155 -2383 -114 -446
-351 -726 -686 -812 -308 -79 -597 2 -826 230 -224 222 -328 488 -393 1005
-72 574 -90 1155 -66 2170 36 1506 126 2120 362 2468 114 167 323 308 523 350
91 20 283 21 379 3z"/>
<path d="M71153 11580 c-603 -42 -1074 -263 -1403 -659 -447 -539 -620 -1188
-489 -1836 83 -412 320 -826 651 -1140 277 -262 670 -566 1258 -975 752 -522
1011 -752 1121 -995 59 -131 74 -204 74 -380 0 -141 -3 -168 -23 -229 -70
-210 -212 -368 -408 -457 -217 -99 -517 -96 -794 8 -279 104 -565 296 -815
547 -269 270 -499 640 -673 1081 -39 99 -73 192 -77 208 l-7 27 -127 0 -128 0
4 -52 c4 -61 8 -153 68 -1403 25 -511 45 -949 45 -972 l0 -43 123 0 122 0 45
86 c81 156 203 260 327 279 57 9 174 -22 403 -105 325 -118 631 -204 895 -252
175 -31 558 -33 730 -5 256 43 455 105 663 207 485 238 822 610 1037 1145 116
287 164 520 172 825 10 389 -52 680 -212 995 -115 228 -240 391 -471 615 -275
266 -588 511 -1114 870 -706 482 -1114 802 -1271 997 -174 217 -204 437 -90
669 92 185 284 332 495 379 113 25 322 16 465 -20 356 -88 748 -362 997 -695
195 -260 413 -649 569 -1012 l29 -68 123 0 123 0 0 33 c1 59 -102 2272 -106
2295 -4 21 -8 22 -127 22 l-123 0 -59 -82 c-150 -210 -228 -270 -365 -283 -99
-10 -181 14 -365 104 -302 149 -514 218 -790 256 -135 19 -354 25 -502 15z"/>
</g>
</svg>
